<svg xmlns="http://www.w3.org/2000/svg" viewBox="0 0 1098 150" font-family="Helvetica,Arial,sans-serif" font-size="14">
<rect width="1098" height="150" fill="white"/>
<line x1="20" y1="24" x2="970" y2="24" stroke="#aaaaaa"/>
<line x1="20" y1="24" x2="20" y2="32" stroke="#aaaaaa"/>
<line x1="970" y1="24" x2="970" y2="32" stroke="#aaaaaa"/>
<text x="495" y="18" text-anchor="middle" fill="#666666" font-size="12">parallel ladder run (2026-07-13, old acceptance rule)</text>
<line x1="992" y1="24" x2="1078" y2="24" stroke="#aaaaaa"/>
<line x1="992" y1="24" x2="992" y2="32" stroke="#aaaaaa"/>
<line x1="1078" y1="24" x2="1078" y2="32" stroke="#aaaaaa"/>
<text x="1035" y="18" text-anchor="middle" fill="#666666" font-size="12">sub-89 run (2026-07-14, Pareto tie-break)</text>
<rect x="20" y="52" width="86" height="40" rx="7" fill="#ffffff" stroke="#8899aa"/>
<text x="63" y="77" text-anchor="middle" fill="#222222" font-weight="bold">scratch</text>
<line x1="106" y1="72" x2="122" y2="72" stroke="#556677" stroke-width="1.6"/>
<path d="M122 68 L128 72 L122 76" fill="#556677"/>
<rect x="128" y="52" width="86" height="40" rx="7" fill="#1f6feb" stroke="#8899aa"/>
<text x="171" y="77" text-anchor="middle" fill="#ffffff" font-weight="bold">97@3</text>
<text x="171" y="110" text-anchor="middle" fill="#888888" font-size="11">d3</text>
<line x1="214" y1="72" x2="230" y2="72" stroke="#556677" stroke-width="1.6"/>
<path d="M230 68 L236 72 L230 76" fill="#556677"/>
<rect x="236" y="52" width="86" height="40" rx="7" fill="#eef2f7" stroke="#8899aa"/>
<text x="279" y="77" text-anchor="middle" fill="#222222" font-weight="bold">96@4</text>
<text x="279" y="110" text-anchor="middle" fill="#888888" font-size="11">d4</text>
<line x1="322" y1="72" x2="338" y2="72" stroke="#556677" stroke-width="1.6"/>
<path d="M338 68 L344 72 L338 76" fill="#556677"/>
<rect x="344" y="52" width="86" height="40" rx="7" fill="#eef2f7" stroke="#8899aa"/>
<text x="387" y="77" text-anchor="middle" fill="#222222" font-weight="bold">95@5</text>
<text x="387" y="110" text-anchor="middle" fill="#888888" font-size="11">d5</text>
<line x1="430" y1="72" x2="446" y2="72" stroke="#556677" stroke-width="1.6"/>
<path d="M446 68 L452 72 L446 76" fill="#556677"/>
<rect x="452" y="52" width="86" height="40" rx="7" fill="#eef2f7" stroke="#8899aa"/>
<text x="495" y="77" text-anchor="middle" fill="#222222" font-weight="bold">94@4</text>
<text x="495" y="110" text-anchor="middle" fill="#888888" font-size="11">d6</text>
<line x1="538" y1="72" x2="554" y2="72" stroke="#556677" stroke-width="1.6"/>
<path d="M554 68 L560 72 L554 76" fill="#556677"/>
<rect x="560" y="52" width="86" height="40" rx="7" fill="#eef2f7" stroke="#8899aa"/>
<text x="603" y="77" text-anchor="middle" fill="#222222" font-weight="bold">93@7</text>
<text x="603" y="110" text-anchor="middle" fill="#888888" font-size="11">d7</text>
<line x1="646" y1="72" x2="662" y2="72" stroke="#556677" stroke-width="1.6"/>
<path d="M662 68 L668 72 L662 76" fill="#556677"/>
<rect x="668" y="52" width="86" height="40" rx="7" fill="#eef2f7" stroke="#8899aa"/>
<text x="711" y="77" text-anchor="middle" fill="#222222" font-weight="bold">92@7</text>
<text x="711" y="110" text-anchor="middle" fill="#888888" font-size="11">d8</text>
<line x1="754" y1="72" x2="770" y2="72" stroke="#556677" stroke-width="1.6"/>
<path d="M770 68 L776 72 L770 76" fill="#556677"/>
<rect x="776" y="52" width="86" height="40" rx="7" fill="#eef2f7" stroke="#8899aa"/>
<text x="819" y="77" text-anchor="middle" fill="#222222" font-weight="bold">92@7</text>
<text x="819" y="110" text-anchor="middle" fill="#888888" font-size="11">d9</text>
<line x1="862" y1="72" x2="878" y2="72" stroke="#556677" stroke-width="1.6"/>
<path d="M878 68 L884 72 L878 76" fill="#556677"/>
<rect x="884" y="52" width="86" height="40" rx="7" fill="#eef2f7" stroke="#8899aa"/>
<text x="927" y="77" text-anchor="middle" fill="#222222" font-weight="bold">89@6</text>
<text x="927" y="110" text-anchor="middle" fill="#888888" font-size="11">d10</text>
<line x1="970" y1="72" x2="986" y2="72" stroke="#556677" stroke-width="1.6"/>
<path d="M986 68 L992 72 L986 76" fill="#556677"/>
<rect x="992" y="52" width="86" height="40" rx="7" fill="#1f6feb" stroke="#8899aa"/>
<text x="1035" y="77" text-anchor="middle" fill="#ffffff" font-weight="bold">89@5</text>
<text x="20" y="140" fill="#666666" font-size="12">gates@depth per rung; every arrow is a seeded search step with a timestamped log line and a verified circuit in evidence/.</text>
</svg>
